<svg width="146" height="50" viewBox="0 0 146 50" fill="none" xmlns="http://www.w3.org/2000/svg">
    <path
        d="M63.344 34C62.772 34 62.332 33.846 62.024 33.538C61.716 33.23 61.562 32.79 61.562 32.218V20.272C61.562 19.7 61.716 19.26 62.024 18.952C62.332 18.644 62.772 18.49 63.344 18.49H71.022C71.462 18.49 71.792 18.6073 72.012 18.842C72.2467 19.062 72.364 19.3847 72.364 19.81C72.364 20.25 72.2467 20.5873 72.012 20.822C71.792 21.042 71.462 21.152 71.022 21.152H64.818V24.782H70.516C70.9707 24.782 71.308 24.8993 71.528 25.134C71.7627 25.354 71.88 25.684 71.88 26.124C71.88 26.564 71.7627 26.9013 71.528 27.136C71.308 27.356 70.9707 27.466 70.516 27.466H64.818V31.338H71.022C71.462 31.338 71.792 31.4553 72.012 31.69C72.2467 31.91 72.364 32.2327 72.364 32.658C72.364 33.098 72.2467 33.4353 72.012 33.67C71.792 33.89 71.462 34 71.022 34H63.344ZM78.1839 34.242C77.3919 34.242 76.6805 34.088 76.0499 33.78C75.4192 33.472 74.9279 33.054 74.5759 32.526C74.2239 31.998 74.0479 31.404 74.0479 30.744C74.0479 29.952 74.2532 29.3287 74.6639 28.874C75.0745 28.4047 75.7419 28.0747 76.6659 27.884C77.5899 27.6787 78.8145 27.576 80.3399 27.576H81.5059V29.292H80.3619C79.6139 29.292 79.0052 29.336 78.5359 29.424C78.0812 29.4973 77.7512 29.6293 77.5459 29.82C77.3552 30.0107 77.2599 30.2747 77.2599 30.612C77.2599 31.0227 77.3992 31.36 77.6779 31.624C77.9712 31.888 78.3892 32.02 78.9319 32.02C79.3572 32.02 79.7312 31.9247 80.0539 31.734C80.3912 31.5287 80.6552 31.2573 80.8459 30.92C81.0365 30.568 81.1319 30.172 81.1319 29.732V27.202C81.1319 26.5567 80.9852 26.102 80.6919 25.838C80.3985 25.5593 79.8999 25.42 79.1959 25.42C78.7999 25.42 78.3672 25.4713 77.8979 25.574C77.4432 25.662 76.9372 25.816 76.3799 26.036C76.0572 26.1827 75.7712 26.2193 75.5219 26.146C75.2725 26.058 75.0819 25.9113 74.9499 25.706C74.8179 25.486 74.7519 25.2513 74.7519 25.002C74.7519 24.738 74.8252 24.4887 74.9719 24.254C75.1185 24.0047 75.3605 23.8213 75.6979 23.704C76.3872 23.4253 77.0325 23.2347 77.6339 23.132C78.2499 23.0293 78.8145 22.978 79.3279 22.978C80.4572 22.978 81.3812 23.1467 82.0999 23.484C82.8332 23.8067 83.3832 24.3127 83.7499 25.002C84.1165 25.6767 84.2999 26.5493 84.2999 27.62V32.504C84.2999 33.0467 84.1679 33.4647 83.9039 33.758C83.6399 34.0513 83.2585 34.198 82.7599 34.198C82.2612 34.198 81.8725 34.0513 81.5939 33.758C81.3299 33.4647 81.1979 33.0467 81.1979 32.504V31.69L81.3519 31.822C81.2639 32.3207 81.0732 32.7533 80.7799 33.12C80.5012 33.472 80.1419 33.7507 79.7019 33.956C79.2619 34.1467 78.7559 34.242 78.1839 34.242ZM90.914 34.242C90.2686 34.242 89.6013 34.1833 88.912 34.066C88.2373 33.9487 87.6213 33.7507 87.064 33.472C86.7706 33.3253 86.558 33.142 86.426 32.922C86.3086 32.6873 86.2573 32.4527 86.272 32.218C86.2866 31.9833 86.36 31.7707 86.492 31.58C86.6386 31.3893 86.822 31.2647 87.042 31.206C87.2766 31.1327 87.5333 31.1547 87.812 31.272C88.4133 31.5213 88.9633 31.6973 89.462 31.8C89.9606 31.9027 90.452 31.954 90.936 31.954C91.5666 31.954 92.0213 31.8587 92.3 31.668C92.5933 31.4627 92.74 31.1987 92.74 30.876C92.74 30.5827 92.6446 30.3627 92.454 30.216C92.2633 30.0693 91.9846 29.9667 91.618 29.908L89.308 29.49C88.3986 29.3287 87.6946 28.9987 87.196 28.5C86.712 27.9867 86.47 27.334 86.47 26.542C86.47 25.8087 86.6753 25.178 87.086 24.65C87.4966 24.1073 88.0613 23.6967 88.78 23.418C89.5133 23.1247 90.342 22.978 91.266 22.978C91.926 22.978 92.5346 23.0367 93.092 23.154C93.6493 23.2713 94.1846 23.462 94.698 23.726C94.962 23.858 95.1453 24.034 95.248 24.254C95.3653 24.474 95.402 24.7013 95.358 24.936C95.3286 25.1707 95.2406 25.3833 95.094 25.574C94.9473 25.7647 94.7566 25.8893 94.522 25.948C94.302 26.0067 94.0453 25.9773 93.752 25.86C93.2826 25.64 92.85 25.486 92.454 25.398C92.058 25.2953 91.6766 25.244 91.31 25.244C90.65 25.244 90.1733 25.354 89.88 25.574C89.5866 25.7793 89.44 26.0433 89.44 26.366C89.44 26.6153 89.5206 26.828 89.682 27.004C89.858 27.1653 90.122 27.2753 90.474 27.334L92.784 27.752C93.7373 27.9133 94.4633 28.236 94.962 28.72C95.4606 29.1893 95.71 29.8347 95.71 30.656C95.71 31.7707 95.27 32.6507 94.39 33.296C93.5246 33.9267 92.366 34.242 90.914 34.242ZM100.339 38.158C99.9579 38.158 99.6426 38.0553 99.3932 37.85C99.1439 37.6447 98.9972 37.3733 98.9532 37.036C98.9092 36.7133 98.9679 36.3687 99.1292 36.002L100.603 32.746V34.11L96.7092 25.178C96.5626 24.7967 96.5112 24.4447 96.5552 24.122C96.6139 23.7847 96.7752 23.5207 97.0392 23.33C97.3179 23.1247 97.6992 23.022 98.1832 23.022C98.5792 23.022 98.8946 23.1173 99.1292 23.308C99.3786 23.484 99.6059 23.8287 99.8112 24.342L102.407 30.942H101.703L104.387 24.32C104.593 23.8213 104.82 23.484 105.069 23.308C105.333 23.1173 105.685 23.022 106.125 23.022C106.507 23.022 106.807 23.1247 107.027 23.33C107.262 23.5207 107.401 23.7773 107.445 24.1C107.504 24.4227 107.445 24.7747 107.269 25.156L102.099 36.882C101.879 37.3807 101.63 37.718 101.351 37.894C101.087 38.07 100.75 38.158 100.339 38.158ZM111.124 34.198C110.566 34.198 110.141 34.044 109.848 33.736C109.554 33.428 109.408 32.9953 109.408 32.438V20.228C109.408 19.656 109.554 19.2233 109.848 18.93C110.156 18.6367 110.588 18.49 111.146 18.49H116.492C118.222 18.49 119.557 18.93 120.496 19.81C121.434 20.6753 121.904 21.8853 121.904 23.44C121.904 24.9947 121.434 26.212 120.496 27.092C119.557 27.972 118.222 28.412 116.492 28.412H112.818V32.438C112.818 32.9953 112.671 33.428 112.378 33.736C112.099 34.044 111.681 34.198 111.124 34.198ZM112.818 25.772H115.92C116.8 25.772 117.467 25.574 117.922 25.178C118.391 24.782 118.626 24.2027 118.626 23.44C118.626 22.6773 118.391 22.1053 117.922 21.724C117.467 21.3427 116.8 21.152 115.92 21.152H112.818V25.772ZM126.889 34.242C126.097 34.242 125.386 34.088 124.755 33.78C124.124 33.472 123.633 33.054 123.281 32.526C122.929 31.998 122.753 31.404 122.753 30.744C122.753 29.952 122.958 29.3287 123.369 28.874C123.78 28.4047 124.447 28.0747 125.371 27.884C126.295 27.6787 127.52 27.576 129.045 27.576H130.211V29.292H129.067C128.319 29.292 127.71 29.336 127.241 29.424C126.786 29.4973 126.456 29.6293 126.251 29.82C126.06 30.0107 125.965 30.2747 125.965 30.612C125.965 31.0227 126.104 31.36 126.383 31.624C126.676 31.888 127.094 32.02 127.637 32.02C128.062 32.02 128.436 31.9247 128.759 31.734C129.096 31.5287 129.36 31.2573 129.551 30.92C129.742 30.568 129.837 30.172 129.837 29.732V27.202C129.837 26.5567 129.69 26.102 129.397 25.838C129.104 25.5593 128.605 25.42 127.901 25.42C127.505 25.42 127.072 25.4713 126.603 25.574C126.148 25.662 125.642 25.816 125.085 26.036C124.762 26.1827 124.476 26.2193 124.227 26.146C123.978 26.058 123.787 25.9113 123.655 25.706C123.523 25.486 123.457 25.2513 123.457 25.002C123.457 24.738 123.53 24.4887 123.677 24.254C123.824 24.0047 124.066 23.8213 124.403 23.704C125.092 23.4253 125.738 23.2347 126.339 23.132C126.955 23.0293 127.52 22.978 128.033 22.978C129.162 22.978 130.086 23.1467 130.805 23.484C131.538 23.8067 132.088 24.3127 132.455 25.002C132.822 25.6767 133.005 26.5493 133.005 27.62V32.504C133.005 33.0467 132.873 33.4647 132.609 33.758C132.345 34.0513 131.964 34.198 131.465 34.198C130.966 34.198 130.578 34.0513 130.299 33.758C130.035 33.4647 129.903 33.0467 129.903 32.504V31.69L130.057 31.822C129.969 32.3207 129.778 32.7533 129.485 33.12C129.206 33.472 128.847 33.7507 128.407 33.956C127.967 34.1467 127.461 34.242 126.889 34.242ZM138.324 38.158C137.942 38.158 137.627 38.0553 137.378 37.85C137.128 37.6447 136.982 37.3733 136.938 37.036C136.894 36.7133 136.952 36.3687 137.114 36.002L138.588 32.746V34.11L134.694 25.178C134.547 24.7967 134.496 24.4447 134.54 24.122C134.598 23.7847 134.76 23.5207 135.024 23.33C135.302 23.1247 135.684 23.022 136.168 23.022C136.564 23.022 136.879 23.1173 137.114 23.308C137.363 23.484 137.59 23.8287 137.796 24.342L140.392 30.942H139.688L142.372 24.32C142.577 23.8213 142.804 23.484 143.054 23.308C143.318 23.1173 143.67 23.022 144.11 23.022C144.491 23.022 144.792 23.1247 145.012 23.33C145.246 23.5207 145.386 23.7773 145.43 24.1C145.488 24.4227 145.43 24.7747 145.254 25.156L140.084 36.882C139.864 37.3807 139.614 37.718 139.336 37.894C139.072 38.07 138.734 38.158 138.324 38.158Z"
        fill="white" />
    <rect width="50" height="50" rx="25" fill="#0066FE" />
    <path
        d="M19.6 37C18.5033 37 17.6633 36.72 17.08 36.16C16.52 35.5767 16.24 34.7483 16.24 33.675V15.65C16.24 14.5767 16.52 13.76 17.08 13.2C17.6633 12.6167 18.5033 12.325 19.6 12.325H31.465C32.305 12.325 32.935 12.535 33.355 12.955C33.775 13.375 33.985 13.9817 33.985 14.775C33.985 15.5917 33.775 16.2217 33.355 16.665C32.935 17.085 32.305 17.295 31.465 17.295H22.4V21.985H30.695C31.5117 21.985 32.13 22.195 32.55 22.615C32.9933 23.035 33.215 23.6533 33.215 24.47C33.215 25.2867 32.9933 25.905 32.55 26.325C32.13 26.745 31.5117 26.955 30.695 26.955H22.4V32.03H31.465C32.305 32.03 32.935 32.2517 33.355 32.695C33.775 33.115 33.985 33.7217 33.985 34.515C33.985 35.3317 33.775 35.95 33.355 36.37C32.935 36.79 32.305 37 31.465 37H19.6Z"
        fill="white" />
</svg>